<?xml version="1.0" encoding="UTF-8"?>
<svg width="180px" height="42px" viewBox="0 0 180 42" version="1.1" xmlns="http://www.w3.org/2000/svg" xmlns:xlink="http://www.w3.org/1999/xlink">
    <!-- Generator: Sketch 48.2 (47327) - http://www.bohemiancoding.com/sketch -->
    <title>list01</title>
    <desc>Created with Sketch.</desc>
    <defs></defs>
    <g id="Page-1" stroke="none" stroke-width="1" fill="none" fill-rule="evenodd">
        <g id="list01" transform="translate(1.000000, 1.000000)">
            <path d="M12,0 L20,0 L165.791992,0 C172.419409,6.76353751e-16 177.791992,8.954305 177.791992,20 C177.791992,31.045695 172.419409,40 165.791992,40 L12,40 C5.372583,40 1.77635684e-15,31.045695 0,20 C0,8.954305 5.372583,2.02906125e-15 12,0 Z" id="Shape" stroke="#D1A248" fill="#FFDB63" fill-rule="nonzero"></path>
            <text id="列表" fill="#FFFFFF" font-family="PingFangSC-Regular, PingFang SC" font-size="15" font-weight="normal">
                <tspan x="12" y="25">列表</tspan>
            </text>
            <g id="Group" transform="translate(129.791992, 10.000000)"></g>
            <g id="Group" transform="translate(149.791992, 10.000000)"></g>
            <g id="Group" transform="translate(44.000000, 7.500000)">
                <path d="M12,0 L20.8959961,0 C27.5234131,4.22721094e-16 32.8959961,5.59644063 32.8959961,12.5 C32.8959961,19.4035594 27.5234131,25 20.8959961,25 L12,25 C5.372583,25 1.77635684e-15,19.4035594 0,12.5 C0,5.59644063 5.372583,1.26816328e-15 12,0 Z" id="Shape" fill-opacity="0.12" fill="#000000" fill-rule="nonzero"></path>
                <g transform="translate(12.000000, 1.500000)" fill="#FFFFFF" font-family="Helvetica" font-size="15" font-weight="normal" id="1">
                    <text>
                        <tspan x="0" y="15">1</tspan>
                    </text>
                </g>
            </g>
            <g id="Group" transform="translate(84.895996, 7.500000)">
                <path d="M12,0 L20.8959961,0 C27.5234131,4.22721094e-16 32.8959961,5.59644063 32.8959961,12.5 C32.8959961,19.4035594 27.5234131,25 20.8959961,25 L12,25 C5.372583,25 1.77635684e-15,19.4035594 0,12.5 C0,5.59644063 5.372583,1.26816328e-15 12,0 Z" id="Shape" fill-opacity="0.12" fill="#000000" fill-rule="nonzero"></path>
                <g transform="translate(12.000000, 1.500000)" fill="#FFFFFF" font-family="Helvetica" font-size="15" font-weight="normal" id="1">
                    <text>
                        <tspan x="0" y="15">1</tspan>
                    </text>
                </g>
            </g>
        </g>
    </g>
</svg>