<?xml version="1.0" encoding="UTF-8"?>
<svg width="183px" height="42px" viewBox="0 0 183 42" version="1.1" xmlns="http://www.w3.org/2000/svg" xmlns:xlink="http://www.w3.org/1999/xlink">
    <!-- Generator: Sketch 48.2 (47327) - http://www.bohemiancoding.com/sketch -->
    <title>Group</title>
    <desc>Created with Sketch.</desc>
    <defs></defs>
    <g id="Page-1" stroke="none" stroke-width="1" fill="none" fill-rule="evenodd">
        <g id="Group" transform="translate(1.000000, 1.000000)">
            <path d="M0,2 C-1.3527075e-16,0.8954305 0.8954305,2.02906125e-16 2,0 L16,0 L24,0 L165.343994,0 C174.18055,6.76353751e-16 181.343994,8.954305 181.343994,20 C181.343994,31.045695 174.18055,40 165.343994,40 L15.5,40 L2,40 C0.8954305,40 1.3527075e-16,39.1045695 0,38 L0,2 Z" id="Shape" stroke="#5680D5" fill="#608FEE" fill-rule="nonzero"></path>
            <g transform="translate(18.000000, 6.500000)">
                <path d="M10,1 L135.343994,1 L141.343994,1 C143.553133,1 145.343994,2.790861 145.343994,5 L145.343994,22 C145.343994,24.209139 143.553133,26 141.343994,26 L10,26 L4,26 C1.790861,26 0,24.209139 0,22 L0,5 C0,2.790861 1.790861,1 4,1" id="Shape" fill-opacity="0.12" fill="#000000" fill-rule="nonzero"></path>
                <g transform="translate(10.000000, 0.500000)" fill="#FFFFFF" font-family="Helvetica" font-size="15" font-weight="normal" id="#-输入代码并执行">
                    <text>
                        <tspan x="0" y="15"># </tspan>
                        <tspan x="12.5097656" y="15" font-family="PingFangSC-Regular, PingFang SC">输入代码并执行</tspan>
                    </text>
                </g>
            </g>
        </g>
    </g>
</svg>