<?xml version="1.0" encoding="UTF-8"?>
<svg width="183px" height="38px" viewBox="0 0 183 38" version="1.1" xmlns="http://www.w3.org/2000/svg" xmlns:xlink="http://www.w3.org/1999/xlink">
    <!-- Generator: Sketch 48.2 (47327) - http://www.bohemiancoding.com/sketch -->
    <title>Group</title>
    <desc>Created with Sketch.</desc>
    <defs></defs>
    <g id="Page-1" stroke="none" stroke-width="1" fill="none" fill-rule="evenodd">
        <g id="Group" transform="translate(1.000000, 1.000000)">
            <path d="M12,0 L20,0 L169.343994,0 C175.971411,6.08718376e-16 181.343994,8.0588745 181.343994,18 C181.343994,27.9411255 175.971411,36 169.343994,36 L12,36 C5.372583,36 1.77635684e-15,27.9411255 0,18 C0,8.0588745 5.372583,1.82615513e-15 12,0 Z" id="Shape" stroke="#5680D5" fill="#608FEE" fill-rule="nonzero"></path>
            <g transform="translate(14.000000, 5.500000)">
                <path d="M10,0 L135.343994,0 L141.343994,0 C143.553133,1.3527075e-16 145.343994,1.790861 145.343994,4 L145.343994,21 C145.343994,23.209139 143.553133,25 141.343994,25 L10,25 L4,25 C1.790861,25 0,23.209139 0,21 L0,4 C0,1.790861 1.790861,4.05812251e-16 4,0" id="Shape" fill-opacity="0.12" fill="#000000" fill-rule="nonzero"></path>
                <g transform="translate(10.000000, 1.500000)" fill="#FFFFFF" font-family="Helvetica" font-size="15" font-weight="normal" id="#-输入代码并执行">
                    <text>
                        <tspan x="0" y="15"># </tspan>
                        <tspan x="12.5097656" y="15" font-family="PingFangSC-Regular, PingFang SC">输入代码并执行</tspan>
                    </text>
                </g>
            </g>
        </g>
    </g>
</svg>