<?xml version="1.0" encoding="UTF-8"?>
<svg width="162px" height="42px" viewBox="0 0 162 42" version="1.1" xmlns="http://www.w3.org/2000/svg" xmlns:xlink="http://www.w3.org/1999/xlink">
    <!-- Generator: Sketch 48.2 (47327) - http://www.bohemiancoding.com/sketch -->
    <title>Group</title>
    <desc>Created with Sketch.</desc>
    <defs></defs>
    <g id="Page-1" stroke="none" stroke-width="1" fill="none" fill-rule="evenodd">
        <g id="Group" transform="translate(1.000000, 1.000000)">
            <path d="M0,2 C-1.3527075e-16,0.8954305 0.8954305,2.02906125e-16 2,0 L16,0 L24,0 L144,0 C152.836556,6.76353751e-16 160,8.954305 160,20 C160,31.045695 152.836556,40 144,40 L15.5,40 L2,40 C0.8954305,40 1.3527075e-16,39.1045695 0,38 L0,2 Z" id="Shape" stroke-opacity="0.1" stroke="#B0BEC5" stroke-width="2" fill="#B0BEC5" fill-rule="nonzero"></path>
            <g transform="translate(58.000000, 8.500000)" fill="#000000">
                <path d="M10,0 L74,0 L80,0 C82.209139,1.3527075e-16 84,1.790861 84,4 L84,21 C84,23.209139 82.209139,25 80,25 L10,25 L4,25 C1.790861,25 0,23.209139 0,21 L0,4 C0,1.790861 1.790861,4.05812251e-16 4,0" id="Shape" fill-opacity="0.12" fill-rule="nonzero"></path>
                <g transform="translate(10.000000, 1.500000)" font-family="PingFangSC-Regular, PingFang SC" font-size="15" font-weight="normal" id="注释內容">
                    <text>
                        <tspan x="-7.10542736e-15" y="16">注释內容</tspan>
                    </text>
                </g>
            </g>
            <text id="注释" fill="#000000" font-family="PingFangSC-Regular, PingFang SC" font-size="15" font-weight="normal">
                <tspan x="16" y="26">注释</tspan>
            </text>
        </g>
    </g>
</svg>