<?xml version="1.0" encoding="UTF-8"?>
<svg width="150px" height="42px" viewBox="0 0 150 42" version="1.1" xmlns="http://www.w3.org/2000/svg" xmlns:xlink="http://www.w3.org/1999/xlink">
    <!-- Generator: Sketch 48.2 (47327) - http://www.bohemiancoding.com/sketch -->
    <title>absolute</title>
    <desc>Created with Sketch.</desc>
    <defs></defs>
    <g id="Page-1" stroke="none" stroke-width="1" fill="none" fill-rule="evenodd">
        <g id="absolute" transform="translate(1.000000, 1.000000)">
            <path d="M12,0 L20,0 L136.463989,0 C143.091406,6.76353751e-16 148.463989,8.954305 148.463989,20 C148.463989,31.045695 143.091406,40 136.463989,40 L12,40 C5.372583,40 1.77635684e-15,31.045695 0,20 C0,8.954305 5.372583,2.02906125e-15 12,0 Z" id="Shape" stroke="#E1A78C" fill="#FBBA9D" fill-rule="nonzero"></path>
            <g id="Group" transform="translate(12.000000, 7.500000)">
                <path d="M12,0 L40.4639893,0 C47.0914063,4.22721094e-16 52.4639893,5.59644063 52.4639893,12.5 C52.4639893,19.4035594 47.0914063,25 40.4639893,25 L12,25 C5.372583,25 1.77635684e-15,19.4035594 0,12.5 C0,5.59644063 5.372583,1.26816328e-15 12,0 Z" id="Shape" fill-opacity="0.12" fill="#000000" fill-rule="nonzero"></path>
                <g transform="translate(12.000000, 1.500000)" fill="#FFFFFF" font-family="Helvetica" font-size="15" font-weight="normal" id="-2.5">
                    <text>
                        <tspan x="0" y="15">-2.5</tspan>
                    </text>
                </g>
            </g>
            <text id="的绝对值" fill="#FFFFFF" font-family="PingFangSC-Regular, PingFang SC" font-size="15" font-weight="normal">
                <tspan x="72.4639893" y="25">的绝对值</tspan>
            </text>
        </g>
    </g>
</svg>