<?xml version="1.0" encoding="UTF-8"?>
<svg width="201px" height="38px" viewBox="0 0 201 38" version="1.1" xmlns="http://www.w3.org/2000/svg" xmlns:xlink="http://www.w3.org/1999/xlink">
    <!-- Generator: Sketch 48.2 (47327) - http://www.bohemiancoding.com/sketch -->
    <title>add2</title>
    <desc>Created with Sketch.</desc>
    <defs></defs>
    <g id="Page-1" stroke="none" stroke-width="1" fill="none" fill-rule="evenodd">
        <g id="add2" transform="translate(1.000000, 1.000000)">
            <polygon id="Shape" stroke="#E1A78C" fill="#FBBA9D" fill-rule="nonzero" points="12 0 20 0 186.666748 0 198.666748 18 186.666748 36 12 36 12 36 0 18.5 12 1"></polygon>
            <g id="Group" transform="translate(12.000000, 5.500000)" fill="#000000" fill-opacity="0.12" fill-rule="nonzero">
                <polygon id="Shape" points="12 0 42 0 54 12.5 42 25 12 25 12 25 0 13 12 1"></polygon>
            </g>
            <g id="Group" transform="translate(124.666748, 5.500000)" fill="#000000" fill-opacity="0.12" fill-rule="nonzero">
                <polygon id="Shape" points="12 0 42 0 54 12.5 42 25 12 25 12 25 0 13 12 1"></polygon>
            </g>
            <g id="Group" transform="translate(80.000000, 6.500000)" fill="#FFFFFF" font-family="PingFangSC-Regular, PingFang SC" font-size="15" font-weight="normal">
                <text id="且">
                    <tspan x="0" y="16.5">且</tspan>
                </text>
            </g>
        </g>
    </g>
</svg>