<?xml version="1.0" encoding="UTF-8"?>
<svg width="136px" height="38px" viewBox="0 0 136 38" version="1.1" xmlns="http://www.w3.org/2000/svg" xmlns:xlink="http://www.w3.org/1999/xlink">
    <!-- Generator: Sketch 48.2 (47327) - http://www.bohemiancoding.com/sketch -->
    <title>asin</title>
    <desc>Created with Sketch.</desc>
    <defs></defs>
    <g id="Page-1" stroke="none" stroke-width="1" fill="none" fill-rule="evenodd">
        <g id="asin" transform="translate(1.000000, 1.000000)">
            <path d="M12,0 L20,0 L121.946724,0 C128.574141,6.08718376e-16 133.946724,8.0588745 133.946724,18 C133.946724,27.9411255 128.574141,36 121.946724,36 L12,36 C5.372583,36 1.77635684e-15,27.9411255 0,18 C0,8.0588745 5.372583,1.82615513e-15 12,0 Z" id="Shape" stroke="#E1A78C" fill="#FBBA9D" fill-rule="nonzero"></path>
            <g id="Group" transform="translate(75.706734, 5.500000)">
                <path d="M12,0 L34.2399902,0 C40.8674072,4.22721094e-16 46.2399902,5.59644063 46.2399902,12.5 C46.2399902,19.4035594 40.8674072,25 34.2399902,25 L12,25 C5.372583,25 1.77635684e-15,19.4035594 0,12.5 C0,5.59644063 5.372583,1.26816328e-15 12,0 Z" id="Shape" fill-opacity="0.12" fill="#000000" fill-rule="nonzero"></path>
                <g transform="translate(12.000000, 1.500000)" fill="#FFFFFF" font-family="Helvetica" font-size="15" font-weight="normal" id="0.5">
                    <text>
                        <tspan x="0" y="15">0.5</tspan>
                    </text>
                </g>
            </g>
            <g id="Group" transform="translate(18.000000, 6.500000)" fill="#FFFFFF" font-family="Helvetica" font-size="15" font-weight="normal">
                <text id="asin">
                    <tspan x="0" y="15.5">asin</tspan>
                </text>
            </g>
        </g>
    </g>
</svg>