<?xml version="1.0" encoding="UTF-8"?>
<svg width="346px" height="42px" viewBox="0 0 346 42" version="1.1" xmlns="http://www.w3.org/2000/svg" xmlns:xlink="http://www.w3.org/1999/xlink">
    <!-- Generator: Sketch 48.2 (47327) - http://www.bohemiancoding.com/sketch -->
    <title>float_range</title>
    <desc>Created with Sketch.</desc>
    <defs></defs>
    <g id="Page-1" stroke="none" stroke-width="1" fill="none" fill-rule="evenodd">
        <g id="float_range" transform="translate(1.000000, 1.000000)">
            <path d="M12,0 L20,0 L332.063965,0 C338.691382,6.76353751e-16 344.063965,8.954305 344.063965,20 C344.063965,31.045695 338.691382,40 332.063965,40 L12,40 C5.372583,40 1.77635684e-15,31.045695 0,20 C0,8.954305 5.372583,2.02906125e-15 12,0 Z" id="Shape" stroke="#E1A78C" fill="#FBBA9D" fill-rule="nonzero"></path>
            <g id="Group" transform="translate(36.000000, 7.500000)">
                <path d="M12,0 L52.0319824,0 C58.6593994,4.22721094e-16 64.0319824,5.59644063 64.0319824,12.5 C64.0319824,19.4035594 58.6593994,25 52.0319824,25 L12,25 C5.372583,25 1.77635684e-15,19.4035594 0,12.5 C0,5.59644063 5.372583,1.26816328e-15 12,0 Z" id="Shape" fill-opacity="0.12" fill="#000000" fill-rule="nonzero"></path>
                <g transform="translate(12.000000, 1.500000)" fill="#FFFFFF" font-family="Helvetica" font-size="15" font-weight="normal" id="1.234">
                    <text>
                        <tspan x="0" y="15">1.234</tspan>
                    </text>
                </g>
            </g>
            <g id="Group" transform="translate(132.031982, 7.500000)">
                <path d="M12,0 L52.0319824,0 C58.6593994,4.22721094e-16 64.0319824,5.59644063 64.0319824,12.5 C64.0319824,19.4035594 58.6593994,25 52.0319824,25 L12,25 C5.372583,25 1.77635684e-15,19.4035594 0,12.5 C0,5.59644063 5.372583,1.26816328e-15 12,0 Z" id="Shape" fill-opacity="0.12" fill="#000000" fill-rule="nonzero"></path>
                <g transform="translate(12.000000, 1.500000)" fill="#FFFFFF" font-family="Helvetica" font-size="15" font-weight="normal" id="3.456">
                    <text>
                        <tspan x="0" y="15">3.456</tspan>
                    </text>
                </g>
            </g>
            <text id="在" fill="#FFFFFF" font-family="PingFangSC-Regular, PingFang SC" font-size="15" font-weight="normal">
                <tspan x="12" y="25">在</tspan>
            </text>
            <text id="到" fill="#FFFFFF" font-family="PingFangSC-Regular, PingFang SC" font-size="15" font-weight="normal">
                <tspan x="108.031982" y="25">到</tspan>
            </text>
            <text id="间随机一个浮点数" fill="#FFFFFF" font-family="PingFangSC-Regular, PingFang SC" font-size="15" font-weight="normal">
                <tspan x="204.063965" y="25">间随机一个浮点数</tspan>
            </text>
        </g>
    </g>
</svg>