<?xml version="1.0" encoding="UTF-8"?>
<svg width="115px" height="38px" viewBox="0 0 115 38" version="1.1" xmlns="http://www.w3.org/2000/svg" xmlns:xlink="http://www.w3.org/1999/xlink">
    <!-- Generator: Sketch 48.2 (47327) - http://www.bohemiancoding.com/sketch -->
    <title>in</title>
    <desc>Created with Sketch.</desc>
    <defs></defs>
    <g id="Page-1" stroke="none" stroke-width="1" fill="none" fill-rule="evenodd">
        <g id="in" transform="translate(1.000000, 1.000000)">
            <path d="M12,0 L20,0 L100.906731,0 C107.534148,6.08718376e-16 112.906731,8.0588745 112.906731,18 C112.906731,27.9411255 107.534148,36 100.906731,36 L12,36 C5.372583,36 1.77635684e-15,27.9411255 0,18 C0,8.0588745 5.372583,1.82615513e-15 12,0 Z" id="Shape" stroke="#E1A78C" fill="#FBBA9D" fill-rule="nonzero"></path>
            <g id="Group" transform="translate(59.114738, 5.500000)">
                <path d="M12,0 L29.7919922,0 C36.4194092,4.22721094e-16 41.7919922,5.59644063 41.7919922,12.5 C41.7919922,19.4035594 36.4194092,25 29.7919922,25 L12,25 C5.372583,25 1.77635684e-15,19.4035594 0,12.5 C0,5.59644063 5.372583,1.26816328e-15 12,0 Z" id="Shape" fill-opacity="0.12" fill="#000000" fill-rule="nonzero"></path>
                <g transform="translate(12.000000, 1.500000)" fill="#FFFFFF" font-family="Helvetica" font-size="15" font-weight="normal" id="10">
                    <text>
                        <tspan x="0" y="15">10</tspan>
                    </text>
                </g>
            </g>
            <g id="Group" transform="translate(18.000000, 6.500000)" fill="#FFFFFF" font-family="Helvetica" font-size="15" font-weight="normal">
                <text id="ln">
                    <tspan x="0" y="15.5">ln</tspan>
                </text>
            </g>
        </g>
    </g>
</svg>