<?xml version="1.0" encoding="UTF-8"?>
<svg width="286px" height="42px" viewBox="0 0 286 42" version="1.1" xmlns="http://www.w3.org/2000/svg" xmlns:xlink="http://www.w3.org/1999/xlink">
    <!-- Generator: Sketch 48.2 (47327) - http://www.bohemiancoding.com/sketch -->
    <title>int</title>
    <desc>Created with Sketch.</desc>
    <defs></defs>
    <g id="Page-1" stroke="none" stroke-width="1" fill="none" fill-rule="evenodd">
        <g id="int" transform="translate(1.000000, 1.000000)">
            <path d="M12,0 L20,0 L271.583984,0 C278.211401,6.76353751e-16 283.583984,8.954305 283.583984,20 C283.583984,31.045695 278.211401,40 271.583984,40 L12,40 C5.372583,40 1.77635684e-15,31.045695 0,20 C0,8.954305 5.372583,2.02906125e-15 12,0 Z" id="Shape" stroke="#E1A78C" fill="#FBBA9D" fill-rule="nonzero"></path>
            <g id="Group" transform="translate(36.000000, 7.500000)">
                <path d="M12,0 L20.8959961,0 C27.5234131,4.22721094e-16 32.8959961,5.59644063 32.8959961,12.5 C32.8959961,19.4035594 27.5234131,25 20.8959961,25 L12,25 C5.372583,25 1.77635684e-15,19.4035594 0,12.5 C0,5.59644063 5.372583,1.26816328e-15 12,0 Z" id="Shape" fill-opacity="0.12" fill="#000000" fill-rule="nonzero"></path>
                <g transform="translate(12.000000, 1.500000)" fill="#FFFFFF" font-family="Helvetica" font-size="15" font-weight="normal" id="1">
                    <text>
                        <tspan x="0" y="15">1</tspan>
                    </text>
                </g>
            </g>
            <g id="Group" transform="translate(100.895996, 7.500000)">
                <path d="M12,0 L38.6879883,0 C45.3154053,4.22721094e-16 50.6879883,5.59644063 50.6879883,12.5 C50.6879883,19.4035594 45.3154053,25 38.6879883,25 L12,25 C5.372583,25 1.77635684e-15,19.4035594 0,12.5 C0,5.59644063 5.372583,1.26816328e-15 12,0 Z" id="Shape" fill-opacity="0.12" fill="#000000" fill-rule="nonzero"></path>
                <g transform="translate(12.000000, 1.500000)" fill="#FFFFFF" font-family="Helvetica" font-size="15" font-weight="normal" id="100">
                    <text>
                        <tspan x="0" y="15">100</tspan>
                    </text>
                </g>
            </g>
            <text id="在" fill="#FFFFFF" font-family="PingFangSC-Regular, PingFang SC" font-size="15" font-weight="normal">
                <tspan x="12" y="25">在</tspan>
            </text>
            <text id="到" fill="#FFFFFF" font-family="PingFangSC-Regular, PingFang SC" font-size="15" font-weight="normal">
                <tspan x="76.8959961" y="25">到</tspan>
            </text>
            <text id="间随机一个整数" fill="#FFFFFF" font-family="PingFangSC-Regular, PingFang SC" font-size="15" font-weight="normal">
                <tspan x="159.583984" y="25">间随机一个整数</tspan>
            </text>
        </g>
    </g>
</svg>