<?xml version="1.0" encoding="UTF-8"?>
<svg width="240px" height="42px" viewBox="0 0 240 42" version="1.1" xmlns="http://www.w3.org/2000/svg" xmlns:xlink="http://www.w3.org/1999/xlink">
    <!-- Generator: Sketch 48.2 (47327) - http://www.bohemiancoding.com/sketch -->
    <title>dict01</title>
    <desc>Created with Sketch.</desc>
    <defs></defs>
    <g id="Page-1" stroke="none" stroke-width="1" fill="none" fill-rule="evenodd">
        <g id="dict01" transform="translate(1.000000, 1.000000)">
            <path d="M12,0 L20,0 L225.087967,0 C231.715384,6.76353751e-16 237.087967,8.954305 237.087967,20 C237.087967,31.045695 231.715384,40 225.087967,40 L12,40 C5.372583,40 1.77635684e-15,31.045695 0,20 C0,8.954305 5.372583,2.02906125e-15 12,0 Z" id="Shape" stroke-opacity="0.1" stroke="#7D68F1" stroke-width="2" fill="#7D68F1" fill-rule="nonzero"></path>
            <text id="字典" fill="#FFFFFF" font-family="PingFangSC-Regular, PingFang SC" font-size="15" font-weight="normal">
                <tspan x="12" y="24">字典</tspan>
            </text>
            <text id=":" fill="#FFFFFF" font-family="Helvetica" font-size="15" font-weight="normal">
                <tspan x="130.847977" y="23">:</tspan>
            </text>
            <g id="Group" transform="translate(189.087967, 10.000000)"></g>
            <g id="Group" transform="translate(209.087967, 10.000000)"></g>
            <g id="Group" transform="translate(44.000000, 5.500000)">
                <path d="M12,2 L66.8479767,2 C73.4753937,2 78.8479767,7.59644063 78.8479767,14.5 C78.8479767,21.4035594 73.4753937,27 66.8479767,27 L12,27 C5.372583,27 1.77635684e-15,21.4035594 0,14.5 C0,7.59644063 5.372583,2 12,2 Z" id="Shape" fill-opacity="0.12" fill="#000000" fill-rule="nonzero"></path>
                <g transform="translate(4.000000, 0.000000)"></g>
                <g transform="translate(12.000000, 2.500000)" fill="#FFFFFF" font-family="Helvetica" font-size="15" font-weight="normal" id="number">
                    <text>
                        <tspan x="0" y="15">number</tspan>
                    </text>
                </g>
                <g transform="translate(68.847977, 0.000000)"></g>
            </g>
            <g id="Group" transform="translate(144.191971, 7.500000)">
                <path d="M12,0 L20.8959961,0 C27.5234131,4.22721094e-16 32.8959961,5.59644063 32.8959961,12.5 C32.8959961,19.4035594 27.5234131,25 20.8959961,25 L12,25 C5.372583,25 1.77635684e-15,19.4035594 0,12.5 C0,5.59644063 5.372583,1.26816328e-15 12,0 Z" id="Shape" fill-opacity="0.12" fill="#000000" fill-rule="nonzero"></path>
                <g transform="translate(12.000000, 0.500000)" fill="#FFFFFF" font-family="Helvetica" font-size="15" font-weight="normal" id="1">
                    <text>
                        <tspan x="0" y="15">1</tspan>
                    </text>
                </g>
            </g>
        </g>
    </g>
</svg>