<?xml version="1.0" encoding="UTF-8"?>
<svg width="261px" height="52px" viewBox="0 0 261 52" version="1.1" xmlns="http://www.w3.org/2000/svg" xmlns:xlink="http://www.w3.org/1999/xlink">
    <!-- Generator: Sketch 48.2 (47327) - http://www.bohemiancoding.com/sketch -->
    <title>function04</title>
    <desc>Created with Sketch.</desc>
    <defs></defs>
    <g id="Page-1" stroke="none" stroke-width="1" fill="none" fill-rule="evenodd">
        <g id="function04" transform="translate(1.000000, 1.000000)">
            <path d="M0,2 C-1.3527075e-16,0.8954305 0.8954305,2.02906125e-16 2,0 L16,0 L24,0 L243.258743,0 C252.095299,8.45442189e-16 259.258743,11.1928813 259.258743,25 C259.258743,38.8071187 252.095299,50 243.258743,50 L15.5,50 L2,50 C0.8954305,50 1.3527075e-16,49.1045695 0,48 L0,2 Z" id="Shape" stroke="#FFFFFF" fill="#FFC063" fill-rule="nonzero"></path>
            <text id="声明" fill="#FFFFFF" font-family="PingFangSC-Regular, PingFang SC" font-size="15" font-weight="normal">
                <tspan x="16" y="30">声明</tspan>
            </text>
            <text id="为全局变量" fill="#FFFFFF" font-family="PingFangSC-Regular, PingFang SC" font-size="15" font-weight="normal">
                <tspan x="123.258743" y="30">为全局变量</tspan>
            </text>
            <g id="Group" transform="translate(207.258743, 15.000000)"></g>
            <g id="Group" transform="translate(227.258743, 15.000000)"></g>
            <g id="Group" transform="translate(56.000000, 5.000000)">
                <path d="M12,0 L20,0 L47.2587433,0 C53.8861603,6.76353751e-16 59.2587433,8.954305 59.2587433,20 C59.2587433,31.045695 53.8861603,40 47.2587433,40 L12,40 C5.372583,40 1.77635684e-15,31.045695 0,20 C0,8.954305 5.372583,2.02906125e-15 12,0 Z" id="Shape" stroke="#FFFFFF" fill="#FFC063" fill-rule="nonzero"></path>
                <g transform="translate(18.000000, 10.500000)" fill="#FFFFFF" font-family="Helvetica" font-size="13" font-weight="normal" id="a">
                    <text>
                        <tspan x="0" y="13.6666667">a</tspan>
                    </text>
                </g>
            </g>
        </g>
    </g>
</svg>