<?xml version="1.0" encoding="UTF-8"?>
<svg width="256px" height="50px" viewBox="0 0 256 50" version="1.1" xmlns="http://www.w3.org/2000/svg" xmlns:xlink="http://www.w3.org/1999/xlink">
    <!-- Generator: Sketch 48.2 (47327) - http://www.bohemiancoding.com/sketch -->
    <title>function01</title>
    <desc>Created with Sketch.</desc>
    <defs>
        <circle id="path-1" cx="18" cy="18" r="18"></circle>
    </defs>
    <g id="Page-1" stroke="none" stroke-width="1" fill="none" fill-rule="evenodd">
        <g id="function01">
            <path d="M25,49 C14.1374637,49 4.62921144,41.7040614 1.81778017,31.2116571 C-0.993651099,20.7192527 3.59276763,9.64665845 13,4.21539031 C22.4072324,-1.21587783 34.2895897,0.348464184 41.9705627,8.02943725 C45,9 45,9 55,9 L125,9 L239.239967,9 C248.076523,9 255.239967,17.954305 255.239967,29 C255.239967,40.045695 248.076523,49 239.239967,49 L27,49 C25.8954305,49 25,48.1045695 25,47 L25,49 Z" id="Shape" stroke="#D78058" fill="#F08F63" fill-rule="nonzero"></path>
            <g id="Group" transform="translate(7.000000, 7.000000)"></g>
            <g id="block_procedure_head" transform="translate(7.000000, 7.000000)">
                <g id="Oval-71-Copy-24">
                    <g id="path-1-Clipped">
                        <mask id="mask-2" fill="white">
                            <use xlink:href="#path-1"></use>
                        </mask>
                        <g id="path-1"></g>
                        <circle id="path-1" stroke="#CC5733" stroke-width="2" fill="#FFFFFF" fill-rule="nonzero" mask="url(#mask-2)" cx="18" cy="18" r="18"></circle>
                    </g>
                </g>
                <path d="M27.15662,22.934883 C27.11397,23.084182 26.92201,23.187777 26.66759,23.324889 C26.39184,23.469618 26.15266,23.455907 25.98203,23.408679 C25.81598,23.359929 25.66668,23.250239 25.54175,23.084182 L23.25047,20.052492 L20.47015,23.068947 C20.13803,23.428484 19.76174,23.481806 19.33212,23.227387 C19.1554,23.123792 18.83242,22.73988 18.79434,22.566205 C18.75778,22.394054 18.82633,22.212762 19.00305,22.019282 L22.0774,18.673759 L19.83791,15.710625 C19.74498,15.575037 19.73584,15.416597 19.80896,15.236828 C19.87904,15.05706 20.0451,14.950417 20.22182,14.845299 C20.47624,14.702093 20.70933,14.697523 20.88148,14.711234 C21.05516,14.721898 21.21207,14.820923 21.3568,15.003739 L23.21847,17.430614 L25.47167,14.976316 C25.66668,14.759985 25.88758,14.683812 26.10086,14.622873 C26.31262,14.561935 26.73158,14.781313 26.9601,14.909284 C27.19471,15.035731 27.31659,15.181984 27.33182,15.346518 C27.34553,15.511052 27.28155,15.672539 27.13529,15.832502 L24.3824,18.818488 L27.09873,22.543353 C27.18404,22.654566 27.20537,22.78863 27.15662,22.934883 Z M20.08166,8.085697 C19.12645,7.977531 17.12615,7.834326 15.91347,8.618909 C14.69775,9.406539 14,10.759373 13.66179,12.368149 L13.18495,14.641155 L9.76173,14.641155 C9.36411,14.641155 9.04723,14.755414 9.01371,15.468395 C9.04723,15.856877 9.36411,16.164617 9.76173,16.164617 L12.85741,16.164617 L10.81749,26.131106 C10.81749,26.131106 10.29494,27.756641 11.43754,27.828243 C12.43541,27.890705 12.63346,26.266695 12.63346,26.266695 L14.69013,16.164617 L17.30287,16.164617 C17.72334,16.164617 18.0646,15.823361 18.0646,15.402886 C18.0646,14.98241 17.72334,14.641155 17.30287,14.641155 L15.01463,14.641155 L15.4671,12.413853 C16.4345,8.864186 18.23827,9.726466 19.90494,9.726466 C20.17764,9.726466 21.20598,9.798068 21.27758,9.094229 C21.36899,8.213668 20.48386,8.131401 20.08166,8.085697 Z M9,15.579607 C9,15.533903 9.0448,15.511052 9.0576,15.469918 C9.0448,15.447066 9,15.427261 9,15.402886 L9,15.579607 Z" id="Shape-Copy-15" fill="#FF6E40" fill-rule="nonzero"></path>
            </g>
            <text id="定义函数" fill="#FFFFFF" font-family="PingFangSC-Regular, PingFang SC" font-size="15" font-weight="normal">
                <tspan x="49" y="34">定义函数</tspan>
            </text>
            <g id="Group" transform="translate(122.000000, 18.000000)" fill="#FFFFFF" font-family="Helvetica" font-size="15" font-weight="normal">
                <text id="function">
                    <tspan x="0" y="15">function</tspan>
                </text>
            </g>
            <g id="Group" transform="translate(199.239967, 19.000000)"></g>
            <g id="Group" transform="translate(223.239967, 19.000000)"></g>
        </g>
    </g>
</svg>