<?xml version="1.0" encoding="UTF-8"?>
<svg width="28px" height="28px" viewBox="0 0 28 28" version="1.1" xmlns="http://www.w3.org/2000/svg" xmlns:xlink="http://www.w3.org/1999/xlink">
    <!-- Generator: Sketch 48.2 (47327) - http://www.bohemiancoding.com/sketch -->
    <title>icn_blockly_functions_inside</title>
    <desc>Created with Sketch.</desc>
    <defs></defs>
    <g id="Page-1" stroke="none" stroke-width="1" fill="none" fill-rule="evenodd">
        <g id="icn_blockly_functions_inside" fill="#000000" fill-rule="nonzero">
            <path d="M23,8 L23,6.99508929 C23,5.8926228 22.1067681,5 21.0049107,5 L6.99508929,5 C5.8926228,5 5,5.8932319 5,6.99508929 L5,8 L23,8 Z M23,9.20000005 L5,9.20000005 L5,21.0049107 C5,22.1073772 5.8932319,23 6.99508929,23 L21.0049107,23 C22.1073772,23 23,22.1067681 23,21.0049107 L23,9.20000005 Z M14,28 C6.2680135,28 0,21.7319865 0,14 C0,6.2680135 6.2680135,0 14,0 C21.7319865,0 28,6.2680135 28,14 C28,21.7319865 21.7319865,28 14,28 Z M9.34852814,15.5 L10.9242641,17.0757359 C11.1585786,17.3100505 11.1585786,17.6899495 10.9242641,17.9242641 C10.6899495,18.1585786 10.3100505,18.1585786 10.0757359,17.9242641 L8.07573593,15.9242641 C7.84142136,15.6899495 7.84142136,15.3100505 8.07573593,15.0757359 L10.0757359,13.0757359 C10.3100505,12.8414214 10.6899495,12.8414214 10.9242641,13.0757359 C11.1585786,13.3100505 11.1585786,13.6899495 10.9242641,13.9242641 L9.34852814,15.5 Z M15.02,13.14 C15.2188225,12.8749033 15.5949033,12.8211775 15.86,13.02 C16.1250967,13.2188225 16.1788225,13.5949033 15.98,13.86 L12.98,17.86 C12.7811775,18.1250967 12.4050967,18.1788225 12.14,17.98 C11.8749033,17.7811775 11.8211775,17.4050967 12.02,17.14 L15.02,13.14 Z M17.0757359,17.0757359 L18.6514719,15.5 L17.0757359,13.9242641 C16.8414214,13.6899495 16.8414214,13.3100505 17.0757359,13.0757359 C17.3100505,12.8414214 17.6899495,12.8414214 17.9242641,13.0757359 L19.9242641,15.0757359 C20.1585786,15.3100505 20.1585786,15.6899495 19.9242641,15.9242641 L17.9242641,17.9242641 C17.6899495,18.1585786 17.3100505,18.1585786 17.0757359,17.9242641 C16.8414214,17.6899495 16.8414214,17.3100505 17.0757359,17.0757359 Z" id="Combined-Shape"></path>
        </g>
    </g>
</svg>