<?xml version="1.0" encoding="UTF-8"?>
<svg width="28px" height="28px" viewBox="0 0 28 28" version="1.1" xmlns="http://www.w3.org/2000/svg" xmlns:xlink="http://www.w3.org/1999/xlink">
    <!-- Generator: Sketch 48.2 (47327) - http://www.bohemiancoding.com/sketch -->
    <title>icn_blockly_list_inside</title>
    <desc>Created with Sketch.</desc>
    <defs></defs>
    <g id="Page-1" stroke="none" stroke-width="1" fill="none" fill-rule="evenodd">
        <g id="icn_blockly_list_inside" fill="#000000" fill-rule="nonzero">
            <path d="M14,28 C6.2680135,28 0,21.7319865 0,14 C0,6.2680135 6.2680135,0 14,0 C21.7319865,0 28,6.2680135 28,14 C28,21.7319865 21.7319865,28 14,28 Z M12.5083334,18.8999939 C11.9514462,18.8999939 11.5,19.3924807 11.5,19.9999939 C11.5,20.6075072 11.9514462,21.0999939 12.5083334,21.0999939 L21.4916666,21.0999939 C22.0485538,21.0999939 22.5,20.6075072 22.5,19.9999939 C22.5,19.3924807 22.0485538,18.8999939 21.4916666,18.8999939 L12.5083334,18.8999939 Z M12.5083334,12.8999939 C11.9514462,12.8999939 11.5,13.3924807 11.5,13.9999939 C11.5,14.6075072 11.9514462,15.0999939 12.5083334,15.0999939 L21.4916666,15.0999939 C22.0485538,15.0999939 22.5,14.6075072 22.5,13.9999939 C22.5,13.3924807 22.0485538,12.8999939 21.4916666,12.8999939 L12.5083334,12.8999939 Z M12.5083334,6.8999939 C11.9514462,6.8999939 11.5,7.39248068 11.5,7.99999392 C11.5,8.60750716 11.9514462,9.09999394 12.5083334,9.09999394 L21.4916666,9.09999394 C22.0485538,9.09999394 22.5,8.60750716 22.5,7.99999392 C22.5,7.39248068 22.0485538,6.8999939 21.4916666,6.8999939 L12.5083334,6.8999939 Z M7.80004883,22.1 C8.9598468,22.1 9.90004883,21.159798 9.90004883,20 C9.90004883,18.840202 8.9598468,17.9 7.80004883,17.9 C6.64025085,17.9 5.70004883,18.840202 5.70004883,20 C5.70004883,21.159798 6.64025085,22.1 7.80004883,22.1 Z M7.80004883,16.1 C8.9598468,16.1 9.90004883,15.159798 9.90004883,14 C9.90004883,12.840202 8.9598468,11.9 7.80004883,11.9 C6.64025085,11.9 5.70004883,12.840202 5.70004883,14 C5.70004883,15.159798 6.64025085,16.1 7.80004883,16.1 Z M7.80004883,10.1 C8.9598468,10.1 9.90004883,9.15979797 9.90004883,8 C9.90004883,6.84020203 8.9598468,5.9 7.80004883,5.9 C6.64025085,5.9 5.70004883,6.84020203 5.70004883,8 C5.70004883,9.15979797 6.64025085,10.1 7.80004883,10.1 Z" id="Combined-Shape"></path>
        </g>
    </g>
</svg>