<?xml version="1.0" encoding="UTF-8"?>
<svg width="28px" height="28px" viewBox="0 0 28 28" version="1.1" xmlns="http://www.w3.org/2000/svg" xmlns:xlink="http://www.w3.org/1999/xlink">
    <!-- Generator: Sketch 48.2 (47327) - http://www.bohemiancoding.com/sketch -->
    <title>icn_blockly_string_inside</title>
    <desc>Created with Sketch.</desc>
    <defs></defs>
    <g id="Page-1" stroke="none" stroke-width="1" fill="none" fill-rule="evenodd">
        <g id="icn_blockly_string_inside" fill="#000000" fill-rule="nonzero">
            <path d="M17.2992241,19.3000031 L12.6232476,6.86190263 C12.5015326,6.53814061 12.2460355,6.28264349 11.9222734,6.16092847 C11.3019209,5.92771329 10.6099676,6.24155011 10.3767524,6.86190263 L5.70077588,19.3000031 L5.60000002,19.3000031 C4.99248679,19.3000031 4.5,19.7924898 4.5,20.4000031 C4.5,21.0075163 4.99248679,21.5000031 5.60000002,21.5000031 L7.39999998,21.5000031 C8.00751321,21.5000031 8.5,21.0075163 8.5,20.4000031 C8.5,20.0084402 8.29540922,19.6646621 7.98729446,19.4697355 L9.40448792,15.7 L13.5955121,15.7 L15.0127055,19.4697355 C14.7045908,19.6646621 14.5,20.0084402 14.5,20.4000031 C14.5,21.0075163 14.9924868,21.5000031 15.6,21.5000031 L17.4,21.5000031 C18.0075132,21.5000031 18.5,21.0075163 18.5,20.4000031 C18.5,19.7924898 18.0075132,19.3000031 17.4,19.3000031 L17.2992241,19.3000031 Z M10.2315554,13.5 L11.5,10.1259366 L12.7684446,13.5 L10.2315554,13.5 Z M22.4839746,19.3031605 L19.1210377,10.3577463 C18.9993227,10.0339843 18.7438256,9.77848719 18.4200635,9.65677218 C17.799711,9.423557 17.1077577,9.73739382 16.8745425,10.3577463 L15.8904652,12.9753925 C15.6766846,13.544049 15.9643684,14.1783396 16.5330249,14.3921201 C17.1016813,14.6059007 17.7359719,14.318217 17.9497525,13.7495605 L17.9977901,13.6217804 L18.6287007,15.3000031 L18.1,15.3000031 C17.4924868,15.3000031 17,15.7924898 17,16.4000031 C17,17.0075163 17.4924868,17.5000031 18.1,17.5000031 L19.4557682,17.5000031 L20.2732194,19.6744237 C20.10313,19.8680824 20,20.1219991 20,20.4000031 C20,21.0075163 20.4924868,21.5000031 21.1,21.5000031 L22.4,21.5000031 C23.0075132,21.5000031 23.5,21.0075163 23.5,20.4000031 C23.5,19.8207428 23.0522552,19.346059 22.4839746,19.3031605 Z M14,28 C6.2680135,28 0,21.7319865 0,14 C0,6.2680135 6.2680135,0 14,0 C21.7319865,0 28,6.2680135 28,14 C28,21.7319865 21.7319865,28 14,28 Z" id="Combined-Shape"></path>
        </g>
    </g>
</svg>