<?xml version="1.0" encoding="UTF-8"?>
<svg width="28px" height="28px" viewBox="0 0 28 28" version="1.1" xmlns="http://www.w3.org/2000/svg" xmlns:xlink="http://www.w3.org/1999/xlink">
    <!-- Generator: Sketch 48.2 (47327) - http://www.bohemiancoding.com/sketch -->
    <title>icn_blockly_control_inside</title>
    <desc>Created with Sketch.</desc>
    <defs></defs>
    <g id="Page-1" stroke="none" stroke-width="1" fill="none" fill-rule="evenodd">
        <g id="icn_blockly_control_inside" fill="#000000" fill-rule="nonzero">
            <path d="M10.0999939,12.4000015 L11.4067997,12.4000015 C11.7344152,12.4000015 12,12.6783218 12,13.0000015 C12,13.3313724 11.7311783,13.6000016 11.4067997,13.6000016 L10.0999939,13.6000016 L10.0999939,14.9067997 C10.0999939,15.2344152 9.82167362,15.5 9.49999392,15.5 C9.16862306,15.5 8.8999939,15.2311783 8.8999939,14.9067997 L8.8999939,13.6000016 L7.59320033,13.6000016 C7.26558483,13.6000016 7,13.3216813 7,13.0000015 C7,12.6686307 7.26882172,12.4000015 7.59320033,12.4000015 L8.8999939,12.4000015 L8.8999939,11.0932003 C8.8999939,10.7655848 9.17831422,10.5 9.49999392,10.5 C9.83136478,10.5 10.0999939,10.7688217 10.0999939,11.0932003 L10.0999939,12.4000015 Z M14,28 C6.2680135,28 0,21.7319865 0,14 C0,6.2680135 6.2680135,0 14,0 C21.7319865,0 28,6.2680135 28,14 C28,21.7319865 21.7319865,28 14,28 Z M23.2818053,11.9560514 C22.5157973,8.92637646 21.6606325,7.46090875 20.030263,7.0945098 C18.4000212,6.72823892 17.9303511,7.50983024 16.7079571,8.02453047 C15.5143029,8.52719243 14.4021415,8.52168556 14.1466778,8.50862275 L14.1466778,8.50362815 C14.1466778,8.50362815 14.0460251,8.50490882 14.0188182,8.50644562 C13.9918668,8.50490882 13.891214,8.50362815 13.891214,8.50362815 L13.891214,8.50862275 C13.6357503,8.52168556 12.5080057,8.5273205 11.3140959,8.02453047 C10.0915743,7.50983024 9.58971575,6.72823892 7.95947396,7.0945098 C6.32910443,7.46090875 5.48109257,8.92637646 4.71508458,11.9560514 C3.86439036,15.3207488 3.8869989,17.5713938 4.19623774,19.5441338 C4.50534886,21.517002 6.45249341,21.1822355 7.40818323,20.3086923 C8.36387304,19.435021 9.83636598,17.8866941 11.7758466,17.80217 C13.3566562,17.7332701 13.8706492,17.7217441 14.0065559,17.719695 C14.141313,17.7217441 14.6522405,17.7332701 16.2330501,17.80217 C18.1725307,17.8866941 19.6397866,19.435021 20.5954765,20.3086923 C21.5511663,21.1822355 23.4960117,21.517002 23.8052505,19.5441338 C24.1144893,17.5713938 24.1324995,15.3207488 23.2818053,11.9560514 Z M19.9,12.8 C19.4029437,12.8 19,12.3970562 19,11.9 C19,11.4029437 19.4029437,11 19.9,11 C20.3970562,11 20.8,11.4029437 20.8,11.9 C20.8,12.3970562 20.3970562,12.8 19.9,12.8 Z M16.9,14.8 C16.4029437,14.8 16,14.3970562 16,13.9 C16,13.4029437 16.4029437,13 16.9,13 C17.3970562,13 17.8,13.4029437 17.8,13.9 C17.8,14.3970562 17.3970562,14.8 16.9,14.8 Z" id="Combined-Shape"></path>
        </g>
    </g>
</svg>