<?xml version="1.0" encoding="UTF-8"?>
<svg width="28px" height="28px" viewBox="0 0 28 28" version="1.1" xmlns="http://www.w3.org/2000/svg" xmlns:xlink="http://www.w3.org/1999/xlink">
    <!-- Generator: Sketch 48.2 (47327) - http://www.bohemiancoding.com/sketch -->
    <title>icn_blockly_turtle_inside</title>
    <desc>Created with Sketch.</desc>
    <defs></defs>
    <g id="Page-1" stroke="none" stroke-width="1" fill="none" fill-rule="evenodd">
        <g id="icn_blockly_turtle_inside" transform="translate(0.000000, -0.000000)" fill="#000000" fill-rule="nonzero">
            <g id="turtle">
                <path d="M10.668239,9.36201082 L10.6267484,9.30456231 C10.3470702,8.91731553 9.99312053,8.58960093 9.58552326,8.3405137 C7.8890069,7.3037537 5.67324862,7.83859191 4.63648862,9.53510827 L3.71949091,11.03565 C3.43164307,11.5066737 3.27933641,12.0479857 3.27933641,12.6 C3.27933641,14.2568542 4.62248217,15.6 6.27933641,15.6 L9.40541261,15.6 C9.40726547,15.729045 9.40934742,15.8106112 9.41213708,15.8551336 C9.61404272,19.0775089 12.2684846,21.6 15.5,21.6 C16.134004,21.6 16.7556587,21.5030598 17.3486623,21.3146769 C17.7049664,21.2014877 18.13869,20.9928961 18.6603506,20.6882792 C18.8509709,20.5769689 18.9871394,20.3918555 19.0366384,20.1767371 C19.1357328,19.746082 18.8669497,19.3166353 18.4361188,19.2176511 C17.9533433,19.1065599 17.5888776,19.0032262 17.3492215,18.911245 C16.2624819,18.4941492 15.2891919,17.8239038 14.5087626,16.9605699 C14.4243269,16.8671647 14.326232,16.7467735 14.2154109,16.6001005 L21.7497874,16.6 C22.3991771,16.6 23.0250664,16.3569804 23.5043097,15.9187531 C24.0384331,15.4303426 24.3220178,14.7702992 24.3478486,14.1000269 L11.937635,14.1000068 C10.6121516,14.1000045 9.5376369,13.025486 9.53763922,11.7000026 C9.53764022,11.1266433 9.74290547,10.5722282 10.1162819,10.1371064 L10.668239,9.36201082 Z M13.4995868,7.96936615 C12.883298,8.52667741 12.448705,8.95232673 12.1958077,9.2463141 C11.8735737,9.6209039 11.4839579,10.1783181 11.0269606,10.9185566 C10.8402723,11.1361175 10.7376397,11.4133251 10.7376392,11.7000047 C10.7376381,12.3627464 11.2748954,12.9000057 11.9376371,12.9000068 L24.1063958,12.9000265 C23.9973787,12.6666397 23.851551,12.4456249 23.6685332,12.2454748 C20.7302474,9.03217981 18.1941646,7.4 16,7.4 C15.2518497,7.4 14.4196528,7.59071275 13.4995868,7.96936615 Z M14,28 C6.2680135,28 0,21.7319865 0,14 C0,6.2680135 6.2680135,0 14,0 C21.7319865,0 28,6.2680135 28,14 C28,21.7319865 21.7319865,28 14,28 Z M9.08965439,18.980586 C8.72589168,18.311366 8.46262262,17.5779003 8.32060362,16.8 L6.55835578,16.8 C6.45439693,17.1857686 6.4,17.588553 6.4,18 C6.4,18.658107 6.53865365,19.2978064 6.80326131,19.8858629 C6.89507661,20.0899106 7.03512829,20.3252605 7.22461038,20.5987264 C7.34857191,20.7776312 7.5400724,20.8983098 7.75495476,20.9329356 C8.19127736,21.003244 8.60201096,20.7064465 8.67209622,20.2700162 C8.70952462,20.037742 8.74736556,19.8589865 8.78326764,19.738756 C8.86184701,19.475606 8.96473366,19.2219248 9.08965439,18.980586 Z M19.6847521,17.8000276 C20.1802905,18.872968 21.2653128,19.6 22.5,19.6 C22.9942461,19.6 23.4731197,19.4837848 23.9048311,19.2640117 C24.1448899,19.141804 24.4002653,18.9420585 24.6846792,18.6634554 C24.7920327,18.5582953 24.8676021,18.4250287 24.9027345,18.2789152 C25.0060459,17.8492491 24.7414832,17.4171856 24.3116335,17.3139866 C24.1385388,17.2723544 24.0227302,17.2229756 23.964683,17.1780911 C23.9496754,17.1664866 23.9279613,17.1504054 23.9021782,17.1316536 C23.2721924,17.564654 22.5223736,17.8 21.7498034,17.8 L19.6847521,17.8000276 Z M7.5,12.5 C6.94771525,12.5 6.5,12.0522847 6.5,11.5 C6.5,10.9477153 6.94771525,10.5 7.5,10.5 C8.05228475,10.5 8.5,10.9477153 8.5,11.5 C8.5,12.0522847 8.05228475,12.5 7.5,12.5 Z" id="Combined-Shape"></path>
            </g>
        </g>
    </g>
</svg>