<?xml version="1.0" encoding="UTF-8"?>
<svg width="28px" height="28px" viewBox="0 0 28 28" version="1.1" xmlns="http://www.w3.org/2000/svg" xmlns:xlink="http://www.w3.org/1999/xlink">
    <!-- Generator: Sketch 48.2 (47327) - http://www.bohemiancoding.com/sketch -->
    <title>icn_blockly_calculator_inside</title>
    <desc>Created with Sketch.</desc>
    <defs></defs>
    <g id="Page-1" stroke="none" stroke-width="1" fill="none" fill-rule="evenodd">
        <g id="icn_blockly_calculator_inside" fill="#000000" fill-rule="nonzero">
            <path d="M14,28 C6.2680135,28 0,21.7319865 0,14 C0,6.2680135 6.2680135,0 14,0 C21.7319865,0 28,6.2680135 28,14 C28,21.7319865 21.7319865,28 14,28 Z M5,6.99508929 L5,21.0049107 C5,22.1073772 5.8932319,23 6.99508929,23 L21.0049107,23 C22.1073772,23 23,22.1067681 23,21.0049107 L23,6.99508929 C23,5.8926228 22.1067681,5 21.0049107,5 L6.99508929,5 C5.8926228,5 5,5.8932319 5,6.99508929 Z M11.0999939,11.1 L11.0999939,12.4067997 C11.0999939,12.7344152 10.8216736,13 10.4999939,13 C10.1686231,13 9.8999939,12.7311783 9.8999939,12.4067997 L9.8999939,11.1 L8.59319425,11.1 C8.26557875,11.1 7.99999392,10.8216797 7.99999392,10.5 C7.99999392,10.1686291 8.26881564,9.89999998 8.59319425,9.89999998 L9.8999939,9.89999998 L9.8999939,8.59320033 C9.8999939,8.26558483 10.1783142,8 10.4999939,8 C10.8313648,8 11.0999939,8.26882172 11.0999939,8.59320033 L11.0999939,9.89999998 L12.4067936,9.89999998 C12.7344091,9.89999998 12.9999939,10.1783203 12.9999939,10.5 C12.9999939,10.8313709 12.7311722,11.1 12.4067936,11.1 L11.0999939,11.1 Z M19.4067997,9.8999939 C19.7344152,9.8999939 20,10.1783142 20,10.4999939 C20,10.8313648 19.7311783,11.0999939 19.4067997,11.0999939 L15.5932003,11.0999939 C15.2655848,11.0999939 15,10.8216736 15,10.4999939 C15,10.1686231 15.2688217,9.8999939 15.5932003,9.8999939 L19.4067997,9.8999939 Z M10.4999939,18.3485282 L9.57594703,19.2725751 C9.34428789,19.5042342 8.95968886,19.4952289 8.73222697,19.267767 C8.49791238,19.0334524 8.49804854,18.6534172 8.72741885,18.4240469 L9.65146575,17.5 L8.72741885,16.5759531 C8.49575972,16.344294 8.50476507,15.9596949 8.73222697,15.732233 C8.96654155,15.4979185 9.34657671,15.4980546 9.57594703,15.7274249 L10.4999939,16.6514718 L11.4240408,15.7274249 C11.6557,15.4957658 12.040299,15.5047711 12.2677609,15.732233 C12.5020755,15.9665476 12.5019393,16.3465828 12.272569,16.5759531 L11.3485221,17.5 L12.272569,18.4240469 C12.5042281,18.655706 12.4952228,19.0403051 12.2677609,19.267767 C12.0334463,19.5020815 11.6534111,19.5019454 11.4240408,19.2725751 L10.4999939,18.3485282 Z M19.4067997,15.8999939 C19.7344152,15.8999939 20,16.1783142 20,16.4999939 C20,16.8313648 19.7311783,17.0999939 19.4067997,17.0999939 L15.5932003,17.0999939 C15.2655848,17.0999939 15,16.8216736 15,16.4999939 C15,16.1686231 15.2688217,15.8999939 15.5932003,15.8999939 L19.4067997,15.8999939 Z M19.4067997,17.8999939 C19.7344152,17.8999939 20,18.1783142 20,18.4999939 C20,18.8313648 19.7311783,19.0999939 19.4067997,19.0999939 L15.5932003,19.0999939 C15.2655848,19.0999939 15,18.8216736 15,18.4999939 C15,18.1686231 15.2688217,17.8999939 15.5932003,17.8999939 L19.4067997,17.8999939 Z" id="Combined-Shape"></path>
        </g>
    </g>
</svg>