<?xml version="1.0" encoding="UTF-8"?>
<svg width="28px" height="28px" viewBox="0 0 28 28" version="1.1" xmlns="http://www.w3.org/2000/svg" xmlns:xlink="http://www.w3.org/1999/xlink">
    <!-- Generator: Sketch 48.2 (47327) - http://www.bohemiancoding.com/sketch -->
    <title>icn_blockly_variable_inside</title>
    <desc>Created with Sketch.</desc>
    <defs></defs>
    <g id="Page-1" stroke="none" stroke-width="1" fill="none" fill-rule="evenodd">
        <g id="icn_blockly_variable_inside" transform="translate(0.000000, -0.000000)" fill="#000000" fill-rule="nonzero">
            <path d="M11.5757959,8.17383527 C11.8213908,8.098689 12,7.87020272 12,7.60000002 C12,7.26862916 11.7313708,7 11.4,7 L6.60000002,7 C6.26862916,7 6,7.26862916 6,7.60000002 C6,7.93137089 6.26862916,8.20000005 6.60000002,8.20000005 L7.61980073,8.20000005 L11.7688958,14.0087332 L7.62011537,19.8000031 L6.60000002,19.8000031 C6.26862916,19.8000031 6,20.0686322 6,20.4000031 C6,20.7313739 6.26862916,21.0000031 6.60000002,21.0000031 L11.4,21.0000031 C11.7313708,21.0000031 12,20.7313739 12,20.4000031 C12,20.0686322 11.7313708,19.8000031 11.4,19.8000031 L9.60851029,19.8000031 L12.7616343,15.398567 L15.9242059,19.8261673 C15.6786101,19.901313 15.5,20.1297997 15.5,20.4000031 C15.5,20.7313739 15.7686292,21.0000031 16.1,21.0000031 L20.9,21.0000031 C21.2313708,21.0000031 21.5,20.7313739 21.5,20.4000031 C21.5,20.0686322 21.2313708,19.8000031 20.9,19.8000031 L19.8802015,19.8000031 L15.7373422,14 L19.8801993,8.20000005 L20.9,8.20000005 C21.2313708,8.20000005 21.5,7.93137089 21.5,7.60000002 C21.5,7.26862916 21.2313708,7 20.9,7 L16.1,7 C15.7686292,7 15.5,7.26862916 15.5,7.60000002 C15.5,7.93137089 15.7686292,8.20000005 16.1,8.20000005 L17.9045902,8.20000005 L14.751687,12.6200827 L11.5757959,8.17383527 Z M14,28 C6.2680135,28 0,21.7319865 0,14 C0,6.2680135 6.2680135,0 14,0 C21.7319865,0 28,6.2680135 28,14 C28,21.7319865 21.7319865,28 14,28 Z" id="Combined-Shape"></path>
        </g>
    </g>
</svg>