<?xml version="1.0" encoding="UTF-8"?>
<svg width="158px" height="52px" viewBox="0 0 158 52" version="1.1" xmlns="http://www.w3.org/2000/svg" xmlns:xlink="http://www.w3.org/1999/xlink">
    <!-- Generator: Sketch 48.2 (47327) - http://www.bohemiancoding.com/sketch -->
    <title>list07</title>
    <desc>Created with Sketch.</desc>
    <defs></defs>
    <g id="Page-1" stroke="none" stroke-width="1" fill="none" fill-rule="evenodd">
        <g id="list07" transform="translate(1.000000, 1.000000)">
            <path d="M12,0 L20,0 L144.154732,0 C150.782149,8.45442189e-16 156.154732,11.1928813 156.154732,25 C156.154732,38.8071187 150.782149,50 144.154732,50 L12,50 C5.372583,50 1.77635684e-15,38.8071187 0,25 C0,11.1928813 5.372583,2.53632657e-15 12,0 Z" id="Shape" stroke="#D1A248" fill="#FFDB63" fill-rule="nonzero"></path>
            <g id="Group" transform="translate(12.000000, 5.000000)">
                <path d="M12,0 L20,0 L64.1547318,0 C70.7821487,6.76353751e-16 76.1547318,8.954305 76.1547318,20 C76.1547318,31.045695 70.7821487,40 64.1547318,40 L12,40 C5.372583,40 1.77635684e-15,31.045695 0,20 C0,8.954305 5.372583,2.02906125e-15 12,0 Z" id="Shape" stroke="#FFFFFF" fill="#FFC063" fill-rule="nonzero"></path>
                <g transform="translate(18.000000, 10.500000)" fill="#FFFFFF" font-family="Helvetica" font-size="13" font-weight="normal" id="List">
                    <text>
                        <tspan x="0" y="13.6666667">List</tspan>
                    </text>
                </g>
            </g>
            <text id="的长度" fill="#FFFFFF" font-family="PingFangSC-Regular, PingFang SC" font-size="15" font-weight="normal">
                <tspan x="96.1547318" y="30">的长度</tspan>
            </text>
        </g>
    </g>
</svg>