<?xml version="1.0" encoding="UTF-8"?>
<svg width="303px" height="52px" viewBox="0 0 303 52" version="1.1" xmlns="http://www.w3.org/2000/svg" xmlns:xlink="http://www.w3.org/1999/xlink">
    <!-- Generator: Sketch 48.2 (47327) - http://www.bohemiancoding.com/sketch -->
    <title>list05</title>
    <desc>Created with Sketch.</desc>
    <defs></defs>
    <g id="Page-1" stroke="none" stroke-width="1" fill="none" fill-rule="evenodd">
        <g id="list05" transform="translate(1.000000, 1.000000)">
            <path d="M0,2 C-1.3527075e-16,0.8954305 0.8954305,2.02906125e-16 2,0 L16,0 L24,0 L285.06147,0 C293.898026,8.45442189e-16 301.06147,11.1928813 301.06147,25 C301.06147,38.8071187 293.898026,50 285.06147,50 L15.5,50 L2,50 C0.8954305,50 1.3527075e-16,49.1045695 0,48 L0,2 Z" id="Shape" stroke="#D1A248" fill="#FFDB63" fill-rule="nonzero"></path>
            <text id="替换" fill="#FFFFFF" font-family="PingFangSC-Regular, PingFang SC" font-size="15" font-weight="normal">
                <tspan x="16" y="30">替换</tspan>
            </text>
            <g id="Group" transform="translate(142.602730, 13.500000)" fill="#FFFFFF" font-family="PingFangSC-Regular, PingFang SC" font-size="15" font-weight="normal">
                <text id="第">
                    <tspan x="0" y="16.5">第</tspan>
                </text>
            </g>
            <text id="项" fill="#FFFFFF" font-family="PingFangSC-Regular, PingFang SC" font-size="15" font-weight="normal">
                <tspan x="220.165474" y="30">项</tspan>
            </text>
            <text id="为" fill="#FFFFFF" font-family="PingFangSC-Regular, PingFang SC" font-size="15" font-weight="normal">
                <tspan x="236.165474" y="30">为</tspan>
            </text>
            <g id="Group" transform="translate(48.000000, 5.000000)">
                <path d="M12,0 L20,0 L64.1547318,0 C70.7821487,6.76353751e-16 76.1547318,8.954305 76.1547318,20 C76.1547318,31.045695 70.7821487,40 64.1547318,40 L12,40 C5.372583,40 1.77635684e-15,31.045695 0,20 C0,8.954305 5.372583,2.02906125e-15 12,0 Z" id="Shape" stroke="#FFFFFF" fill="#FFC063" fill-rule="nonzero"></path>
                <g transform="translate(18.000000, 10.500000)" fill="#FFFFFF" font-family="Helvetica" font-size="13" font-weight="normal" id="List">
                    <text>
                        <tspan x="0" y="13.6666667">List</tspan>
                    </text>
                </g>
            </g>
            <g id="Group" transform="translate(179.269478, 12.500000)">
                <path d="M12,0 L20.8959961,0 C27.5234131,4.22721094e-16 32.8959961,5.59644063 32.8959961,12.5 C32.8959961,19.4035594 27.5234131,25 20.8959961,25 L12,25 C5.372583,25 1.77635684e-15,19.4035594 0,12.5 C0,5.59644063 5.372583,1.26816328e-15 12,0 Z" id="Shape" fill-opacity="0.12" fill="#000000" fill-rule="nonzero"></path>
                <g transform="translate(12.000000, 1.500000)" fill="#FFFFFF" font-family="Helvetica" font-size="15" font-weight="normal" id="0">
                    <text>
                        <tspan x="0" y="15">0</tspan>
                    </text>
                </g>
            </g>
            <g id="Group" transform="translate(252.165474, 12.500000)">
                <path d="M12,0 L20.8959961,0 C27.5234131,4.22721094e-16 32.8959961,5.59644063 32.8959961,12.5 C32.8959961,19.4035594 27.5234131,25 20.8959961,25 L12,25 C5.372583,25 1.77635684e-15,19.4035594 0,12.5 C0,5.59644063 5.372583,1.26816328e-15 12,0 Z" id="Shape" fill-opacity="0.12" fill="#000000" fill-rule="nonzero"></path>
                <g transform="translate(12.000000, 1.500000)" fill="#FFFFFF" font-family="Helvetica" font-size="15" font-weight="normal" id="0">
                    <text>
                        <tspan x="0" y="15">0</tspan>
                    </text>
                </g>
            </g>
        </g>
    </g>
</svg>