<?xml version="1.0" encoding="UTF-8"?>
<svg width="128px" height="82px" viewBox="0 0 128 82" version="1.1" xmlns="http://www.w3.org/2000/svg" xmlns:xlink="http://www.w3.org/1999/xlink">
    <!-- Generator: Sketch 48.2 (47327) - http://www.bohemiancoding.com/sketch -->
    <title>if</title>
    <desc>Created with Sketch.</desc>
    <defs></defs>
    <g id="Page-1" stroke="none" stroke-width="1" fill="none" fill-rule="evenodd">
        <g id="if" transform="translate(1.000000, 1.000000)">
            <path d="M0,2 C-1.3527075e-16,0.8954305 0.8954305,2.02906125e-16 2,0 L16,0 L32,0 L110,0 C118.836556,6.76353751e-16 126,8.954305 126,20 C126,31.045695 118.836556,40 110,40 L32,40 L18,40 C16.8954305,40 16,40.8954305 16,42 L16,58 C16,59.1045695 16.8954305,60 18,60 L32,60 L76,60 C81.5228475,60 86,64.4771525 86,70 C86,75.5228475 81.5228475,80 76,80 L15.5,80 L2,80 C0.8954305,80 1.3527075e-16,79.1045695 0,78 L0,2 Z" id="Shape" stroke="#56A2C9" fill="#68CDFF" fill-rule="nonzero"></path>
            <g id="Group" transform="translate(56.000000, 7.500000)" fill="#000000" fill-opacity="0.12" fill-rule="nonzero">
                <polygon id="Shape" points="12 0 42 0 54 12.5 42 25 12 25 12 25 0 13 12 1"></polygon>
            </g>
            <text id="如果" fill="#FFFFFF" font-family="PingFangSC-Regular, PingFang SC" font-size="15" font-weight="normal">
                <tspan x="16" y="21">如果</tspan>
            </text>
        </g>
    </g>
</svg>