<?xml version="1.0" encoding="UTF-8"?>
<svg width="128px" height="142px" viewBox="0 0 128 142" version="1.1" xmlns="http://www.w3.org/2000/svg" xmlns:xlink="http://www.w3.org/1999/xlink">
    <!-- Generator: Sketch 48.2 (47327) - http://www.bohemiancoding.com/sketch -->
    <title>if_then</title>
    <desc>Created with Sketch.</desc>
    <defs></defs>
    <g id="Page-1" stroke="none" stroke-width="1" fill="none" fill-rule="evenodd">
        <g id="if_then" transform="translate(1.000000, 1.000000)">
            <path d="M0,2 C-1.3527075e-16,0.8954305 0.8954305,2.02906125e-16 2,0 L16,0 L32,0 L110,0 C118.836556,6.76353751e-16 126,8.954305 126,20 C126,31.045695 118.836556,40 110,40 L32,40 L18,40 C16.8954305,40 16,40.8954305 16,42 L16,58 C16,59.1045695 16.8954305,60 18,60 L32,60 L72,60 C80.836556,60 88,68.954305 88,80 C88,91.045695 80.836556,100 72,100 L32,100 L18,100 C16.8954305,100 16,100.895431 16,102 L16,118 C16,119.104569 16.8954305,120 18,120 L32,120 L76,120 C81.5228475,120 86,124.477153 86,130 C86,135.522847 81.5228475,140 76,140 L15.5,140 L2,140 C0.8954305,140 1.3527075e-16,139.104569 0,138 L0,2 Z" id="Shape" stroke="#56A2C9" fill="#68CDFF" fill-rule="nonzero"></path>
            <g id="Group" transform="translate(56.000000, 7.500000)" fill="#000000" fill-opacity="0.12" fill-rule="nonzero">
                <polygon id="Shape" points="12 0 42 0 54 12.5 42 25 12 25 12 25 0 13 12 1"></polygon>
            </g>
            <text id="如果" fill="#FFFFFF" font-family="PingFangSC-Regular, PingFang SC" font-size="15" font-weight="normal">
                <tspan x="16" y="25">如果</tspan>
            </text>
            <text id="否则" fill="#FFFFFF" font-family="PingFangSC-Regular, PingFang SC" font-size="15" font-weight="normal">
                <tspan x="16" y="85">否则</tspan>
            </text>
        </g>
    </g>
</svg>