<?xml version="1.0" encoding="UTF-8"?>
<svg width="172px" height="82px" viewBox="0 0 172 82" version="1.1" xmlns="http://www.w3.org/2000/svg" xmlns:xlink="http://www.w3.org/1999/xlink">
    <!-- Generator: Sketch 48.2 (47327) - http://www.bohemiancoding.com/sketch -->
    <title>loop</title>
    <desc>Created with Sketch.</desc>
    <defs></defs>
    <g id="Page-1" stroke="none" stroke-width="1" fill="none" fill-rule="evenodd">
        <g id="loop" transform="translate(1.000000, 1.000000)">
            <path d="M0,2 C-1.3527075e-16,0.8954305 0.8954305,2.02906125e-16 2,0 L16,0 L32,0 L153.791992,0 C162.628548,6.76353751e-16 169.791992,8.954305 169.791992,20 C169.791992,31.045695 162.628548,40 153.791992,40 L32,40 L18,40 C16.8954305,40 16,40.8954305 16,42 L16,58 C16,59.1045695 16.8954305,60 18,60 L32,60 L76,60 C81.5228475,60 86,64.4771525 86,70 C86,75.5228475 81.5228475,80 76,80 L15.5,80 L2,80 C0.8954305,80 1.3527075e-16,79.1045695 0,78 L0,2 Z" id="Shape" stroke="#56A2C9" fill="#68CDFF" fill-rule="nonzero"></path>
            <g id="Group" transform="translate(88.000000, 7.500000)">
                <path d="M12,0 L29.7919922,0 C36.4194092,4.22721094e-16 41.7919922,5.59644063 41.7919922,12.5 C41.7919922,19.4035594 36.4194092,25 29.7919922,25 L12,25 C5.372583,25 1.77635684e-15,19.4035594 0,12.5 C0,5.59644063 5.372583,1.26816328e-15 12,0 Z" id="Shape" fill-opacity="0.12" fill="#000000" fill-rule="nonzero"></path>
                <g transform="translate(12.000000, 2.500000)" fill="#FFFFFF" font-family="Helvetica" font-size="15" font-weight="normal" id="20">
                    <text>
                        <tspan x="0" y="15">20</tspan>
                    </text>
                </g>
            </g>
            <text id="重复执行" fill="#FFFFFF" font-family="PingFangSC-Regular, PingFang SC" font-size="15" font-weight="normal">
                <tspan x="16" y="26">重复执行</tspan>
            </text>
            <text id="次" fill="#FFFFFF" font-family="PingFangSC-Regular, PingFang SC" font-size="15" font-weight="normal">
                <tspan x="137.791992" y="26">次</tspan>
            </text>
        </g>
    </g>
</svg>