<?xml version="1.0" encoding="UTF-8"?>
<svg width="279px" height="152px" viewBox="0 0 279 152" version="1.1" xmlns="http://www.w3.org/2000/svg" xmlns:xlink="http://www.w3.org/1999/xlink">
    <!-- Generator: Sketch 48.2 (47327) - http://www.bohemiancoding.com/sketch -->
    <title>try</title>
    <desc>Created with Sketch.</desc>
    <defs></defs>
    <g id="Page-1" stroke="none" stroke-width="1" fill="none" fill-rule="evenodd">
        <g id="try" transform="translate(1.000000, 1.000000)">
            <path d="M0,2 C-1.3527075e-16,0.8954305 0.8954305,2.02906125e-16 2,0 L16,0 L32,0 L94,0 C102.836556,6.76353751e-16 110,8.954305 110,20 C110,31.045695 102.836556,40 94,40 L32,40 L18,40 C16.8954305,40 16,40.8954305 16,42 L16,58 C16,59.1045695 16.8954305,60 18,60 L32,60 L261.333496,60 C270.170052,60 277.333496,71.1928813 277.333496,85 C277.333496,98.8071187 270.170052,110 261.333496,110 L32,110 L18,110 C16.8954305,110 16,110.895431 16,112 L16,128 C16,129.104569 16.8954305,130 18,130 L32,130 L76,130 C81.5228475,130 86,134.477153 86,140 C86,145.522847 81.5228475,150 76,150 L15.5,150 L2,150 C0.8954305,150 1.3527075e-16,149.104569 0,148 L0,2 Z" id="Shape" stroke="#56A2C9" fill="#68CDFF" fill-rule="nonzero"></path>
            <text id="尝试" fill="#FFFFFF" font-family="PingFangSC-Regular, PingFang SC" font-size="15" font-weight="normal">
                <tspan x="16" y="25">尝试</tspan>
            </text>
            <g id="Group" transform="translate(18.000000, 72.500000)" fill="#FFFFFF">
                <rect id="Rectangle-path" stroke-opacity="0.15" stroke="#000000" fill-opacity="0.15" fill-rule="nonzero" x="0" y="0" width="102.666748" height="25" rx="4"></rect>
                <text id="当发生异常" font-family="PingFangSC-Regular, PingFang SC" font-size="15" font-weight="normal">
                    <tspan x="4" y="17.5">当发生异常</tspan>
                </text>
            </g>
            <g id="Group" transform="translate(122.666748, 65.000000)">
                <path d="M12,0 L20,0 L102.666748,0 C109.294165,6.76353751e-16 114.666748,8.954305 114.666748,20 C114.666748,31.045695 109.294165,40 102.666748,40 L12,40 C5.372583,40 1.77635684e-15,31.045695 0,20 C0,8.954305 5.372583,2.02906125e-15 12,0 Z" id="Shape" stroke="#56A2C9" fill="#68CDFF" fill-rule="nonzero"></path>
                <g transform="translate(14.000000, 7.500000)" fill="#FFFFFF">
                    <rect id="Rectangle-path" stroke-opacity="0.15" stroke="#000000" fill-opacity="0.15" fill-rule="nonzero" x="0" y="0" width="86.666748" height="25" rx="4"></rect>
                    <text id="类型错误" font-family="PingFangSC-Regular, PingFang SC" font-size="15" font-weight="normal">
                        <tspan x="4" y="17.5">类型错误</tspan>
                    </text>
                </g>
            </g>
        </g>
    </g>
</svg>